<svg xmlns="http://www.w3.org/2000/svg" width="24" height="24"><rect style="fill:green;stroke:none" width="24" height="24" ry="5"/><path style="fill:#fff;stroke-width:.4286" d="M16 12s-3 3.322-3 5.572c0 1.654 1.346 3 3 3s3-1.346 3-3C19 15.322 16 12 16 12Zm-1.607 3.215c-1.072 2.143 0 4.286 1.071 4.821-2.194-.666-2.679-2.678-1.071-4.821z"/><path style="fill:#fff;fill-opacity:1;stroke:none;stroke-width:1.25px;stroke-linecap:butt;stroke-linejoin:miter;stroke-opacity:1" d="M7 22c0-5 1.106-12.5 4.856-15.567l1.25-.018C9.356 9.5 9 17 9 22Z"/><path style="fill:#fff;stroke:none;stroke-width:1.25px;stroke-linecap:butt;stroke-linejoin:miter;stroke-opacity:1" d="m4 12 9.106-6.25C6.856 5.75 4 7 4 12Z"/><path style="fill:#fff;stroke:none;stroke-width:1.25px;stroke-linecap:butt;stroke-linejoin:miter;stroke-opacity:1" d="m20 5-8.144 1.541C10.886 2.919 16.291.817 20 5Z"/><path style="fill:#fff;stroke:none;stroke-width:1.31193px;stroke-linecap:butt;stroke-linejoin:miter;stroke-opacity:1" d="M4.356 3.25 12.624 7c0-4.433-3.917-5.996-8.268-3.75z"/><path style="fill:#fff;stroke:none;stroke-width:1.31193px;stroke-linecap:butt;stroke-linejoin:miter;stroke-opacity:1" d="m14 13-3.394-7.25c4.433 0 5.64 2.9 3.394 7.25Z"/><path style="fill:#fff;stroke:none;stroke-width:1.25px;stroke-linecap:butt;stroke-linejoin:miter;stroke-opacity:1" d="m19 12-8.021-5.49C12.854 3.261 19.335 6.42 19 12Z"/><path style="fill:#0f0;stroke:none;stroke-width:1px;stroke-linecap:butt;stroke-linejoin:miter;stroke-opacity:1;fill-opacity:1;opacity:.5" d="M21.377.623.623 21.377a4.964 4.964 0 0 0 2 2L23.377 2.623a4.964 4.964 0 0 0-2-2z"/></svg>