<svg xmlns="http://www.w3.org/2000/svg" width="24" height="24"><rect style="fill:green;stroke:none" width="24" height="24" ry="5"/><path d="M0 0h24v24H0z" fill="none"/><path d="M6.5 22C4.57 22 3 20.43 3 18.5 3 15.875 4.5 12 6.5 12s3.5 3.875 3.5 6.5c0 1.93-1.57 3.5-3.5 3.5Z" style="fill:#fff;stroke-width:.5"/><path style="fill:#fff;stroke:none;stroke-width:.942809px;stroke-linecap:butt;stroke-linejoin:miter;stroke-opacity:1" d="M35.001 5c-.497 2.268-2.557 3.36-2.557 6v10.027c0 .974.001.973.736.973h7.264c.889 0 .889 0 .889-1V11c0-2.64-2.061-3.732-2.557-6zm-1.557 6h1v10h-1z" transform="translate(-20.444)"/><path style="fill:#fff;fill-opacity:1;fill-rule:evenodd;stroke:none;stroke-width:.757234;stroke-opacity:1" d="M36 2h1.777c.89 0 .89 0 .89 2H35.11c0-2 0-2 .889-2z" transform="translate(-20.444)"/><path d="M11.783 2s-5.775.293-7.831 2.349a3.882 3.882 0 0 0-.499 4.868C5.062 5.95 7.66 4.325 11 2.783c-2.667 2.05-5.528 3.918-6.835 7.24a3.88 3.88 0 0 0 5.27-.192C11.488 7.775 11.782 2 11.782 2Z" style="fill:#fff;stroke-width:.553725"/></svg>