<svg xmlns="http://www.w3.org/2000/svg" width="24" height="24"><circle style="fill:green;stroke:none;stroke-width:1.09091" cx="12" cy="12" r="12"/><path style="fill:#fff;stroke:none;stroke-width:.708333;stroke-miterlimit:4;stroke-dasharray:none;stroke-opacity:1" d="M-55.646 298.533a4.25 4.25 0 0 0-4.25 4.25 4.25 4.25 0 0 0 .232 1.385h8.035a4.25 4.25 0 0 0 .233-1.385 4.25 4.25 0 0 0-4.25-4.25zm0 .27a.413.413 0 0 1 .414.412.413.413 0 0 1-.414.414.413.413 0 0 1-.413-.414.413.413 0 0 1 .413-.412zm1.365.8a.413.413 0 0 1 .412.413.413.413 0 0 1-.412.414.413.413 0 0 1-.414-.414.413.413 0 0 1 .414-.412zm-2.772.01a.413.413 0 0 1 .414.415.413.413 0 0 1-.414.412.413.413 0 0 1-.412-.412.413.413 0 0 1 .412-.414zm1.407.397a.413.413 0 0 1 .414.412.413.413 0 0 1-.414.414.413.413 0 0 1-.413-.414.413.413 0 0 1 .413-.412zm-4.25 5.574-1.417 15.584h11.334l-1.417-15.584H-58.834zm.953 1.416h.709l-.979 12.75h-.71zm2.943 0h.709v12.75H-56Zm2.941 0h.711l.98 12.75h-.71z" transform="matrix(.88359 0 0 .88359 61.168 -261.78)"/></svg>