<svg xmlns="http://www.w3.org/2000/svg" width="24" height="24"><rect style="fill:green;stroke:none" width="24" height="24" ry="5"/><path style="fill:#fff;stroke:none;stroke-width:1px;stroke-linecap:butt;stroke-linejoin:miter;stroke-opacity:1" d="M7 3S5.293 6.879 6 9c1 3 5 5 5 5v6l-4 1v1h9v-1l-4-1v-6s4-2 5-5c.641-1.924-1-6-1-6z"/><g style="fill:#fff"><path d="M10.056 8.641q0 .641-.465 1T8.33 10Q7.465 10 7 9.777v-.544q.299.126.651.199.352.073.698.073.565 0 .85-.213.286-.216.286-.598 0-.252-.103-.412-.1-.162-.339-.299-.236-.136-.72-.309-.678-.242-.97-.574-.29-.333-.29-.867 0-.562.422-.894.422-.332 1.116-.332.725 0 1.333.265l-.177.492q-.6-.252-1.169-.252-.448 0-.701.192-.252.193-.252.535 0 .253.093.415.093.16.312.296.222.133.678.296.764.272 1.05.585.288.312.288.81zM14.87 7.498q0 1.166-.59 1.834Q13.69 10 12.64 10q-1.073 0-1.658-.654-.581-.658-.581-1.854 0-1.186.585-1.838Q11.57 5 12.647 5q1.047 0 1.635.664.588.665.588 1.834zm-3.87 0q0 .987.419 1.499.422.508 1.222.508.808 0 1.22-.508.411-.509.411-1.499 0-.98-.412-1.485-.408-.508-1.212-.508-.807 0-1.23.512Q11 6.525 11 7.498Z" style="font-style:normal;font-variant:normal;font-weight:400;font-stretch:normal;font-size:6.80399px;line-height:1.25;font-family:'Open Sans';-inkscape-font-specification:'Open Sans';fill:#fff;fill-opacity:1;stroke:none;stroke-width:.1701" transform="translate(5.56 9.233)"/><path d="M16.44 11.026h-1.62v-.24l.649-.653q.296-.3.39-.428.095-.128.142-.25.048-.121.048-.261 0-.197-.12-.312-.12-.116-.332-.116-.154 0-.292.05-.136.05-.305.184l-.148-.19q.34-.284.741-.284.348 0 .545.179.197.177.197.477 0 .234-.131.464-.132.229-.493.58l-.54.527v.014h1.269z" style="font-style:normal;font-variant:normal;font-weight:400;font-stretch:normal;font-size:6.80399px;line-height:1.25;font-family:'Open Sans';-inkscape-font-specification:'Open Sans';fill:#fff;fill-opacity:1;stroke:none;stroke-width:.0863115" transform="translate(5.56 9.233)"/></g><path style="fill:#0f0;stroke:none;stroke-width:1px;stroke-linecap:butt;stroke-linejoin:miter;stroke-opacity:1;fill-opacity:1;opacity:.5" d="M21.377.623.623 21.377a4.964 4.964 0 0 0 2 2L23.377 2.623a4.964 4.964 0 0 0-2-2z"/></svg>